<?xml version="1.0" encoding="UTF-8"?>
<svg viewBox="2.6 2.7 46 46" xmlns="http://www.w3.org/2000/svg" xmlns:cc="http://creativecommons.org/ns#" xmlns:dc="http://purl.org/dc/elements/1.1/" xmlns:rdf="http://www.w3.org/1999/02/22-rdf-syntax-ns#" xmlns:xlink="http://www.w3.org/1999/xlink">
<defs>
<radialGradient id="c" cx="605.71" cy="486.65" r="117.14" gradientTransform="matrix(-2.7744 0 0 1.9697 112.76 -872.89)" gradientUnits="userSpaceOnUse" xlink:href="#a"/>
<linearGradient id="a">
<stop offset="0"/>
<stop stop-opacity="0" offset="1"/>
</linearGradient>
<radialGradient id="d" cx="605.71" cy="486.65" r="117.14" gradientTransform="matrix(2.7744 0 0 1.9697 -1891.6 -872.89)" gradientUnits="userSpaceOnUse" xlink:href="#a"/>
<linearGradient id="l" x1="302.86" x2="302.86" y1="366.65" y2="609.51" gradientTransform="matrix(2.7744 0 0 1.9697 -1892.2 -872.89)" gradientUnits="userSpaceOnUse">
<stop stop-opacity="0" offset="0"/>
<stop offset=".5"/>
<stop stop-opacity="0" offset="1"/>
</linearGradient>
<radialGradient id="i" cx="8.8244" cy="3.7561" r="37.752" gradientTransform="matrix(.96827 0 0 1.0328 3.3536 .64645)" gradientUnits="userSpaceOnUse">
<stop stop-color="#a3a3a3" offset="0"/>
<stop stop-color="#4c4c4c" offset="1"/>
</radialGradient>
<radialGradient id="h" cx="33.967" cy="35.737" r="86.708" gradientTransform="scale(.96049 1.0411)" gradientUnits="userSpaceOnUse">
<stop stop-color="#fafafa" offset="0"/>
<stop stop-color="#bbb" offset="1"/>
</radialGradient>
<radialGradient id="g" cx="8.1436" cy="7.2679" r="38.159" gradientTransform="matrix(.96827 0 0 1.0328 3.3536 .64645)" gradientUnits="userSpaceOnUse">
<stop stop-color="#fff" offset="0"/>
<stop stop-color="#f8f8f8" offset="1"/>
</radialGradient>
<radialGradient id="f" cx="20.892" cy="114.57" r="5.256" gradientTransform="matrix(.2297 0 0 .2297 4.6135 3.9798)" gradientUnits="userSpaceOnUse">
<stop stop-color="#F0F0F0" offset="0"/>
<stop stop-color="#9a9a9a" offset="1"/>
</radialGradient>
<radialGradient id="e" cx="20.892" cy="64.568" r="5.257" gradientTransform="matrix(.2297 0 0 .2297 4.6135 3.9798)" gradientUnits="userSpaceOnUse">
<stop stop-color="#F0F0F0" offset="0"/>
<stop stop-color="#9a9a9a" offset="1"/>
</radialGradient>
<radialGradient id="b" cx="11.314" cy="19.083" r="9.8995" gradientTransform="matrix(1 0 0 .27679 0 13.801)" gradientUnits="userSpaceOnUse">
<stop offset="0"/>
<stop stop-opacity="0" offset="1"/>
</radialGradient>
<linearGradient id="k" x1="16.008" x2="117.84" y1="521.36" y2="333.1" gradientTransform="matrix(.066195 0 0 -.073912 -18.345 68.858)" gradientUnits="userSpaceOnUse">
<stop stop-color="#eddee1" offset="0"/>
<stop stop-color="#cb9ea7" offset="1"/>
</linearGradient>
<linearGradient id="j" x1="11.344" x2="11.283" y1="15.724" y2="9.0953" gradientUnits="userSpaceOnUse">
<stop stop-color="#fff" offset="0"/>
<stop stop-color="#fff" stop-opacity="0" offset="1"/>
</linearGradient>
</defs>
<metadata>
<rdf:RDF>
<cc:Work rdf:about="">
<dc:format>image/svg+xml</dc:format>
<dc:type rdf:resource="http://purl.org/dc/dcmitype/StillImage"/>
<dc:title>Generic Text</dc:title>
<dc:subject>
<rdf:Bag>
<rdf:li>text</rdf:li>
<rdf:li>plaintext</rdf:li>
<rdf:li>regular</rdf:li>
<rdf:li>document</rdf:li>
</rdf:Bag>
</dc:subject>
<cc:license rdf:resource="http://creativecommons.org/licenses/by-sa/2.0/"/>
<dc:creator>
<cc:Agent>
<dc:title>Jakub Steiner</dc:title>
</cc:Agent>
</dc:creator>
<dc:source>http://jimmac.musichall.cz</dc:source>
</cc:Work>
<cc:License rdf:about="http://creativecommons.org/licenses/by/2.0/">
<cc:permits rdf:resource="http://web.resource.org/cc/Reproduction"/>
<cc:permits rdf:resource="http://web.resource.org/cc/Distribution"/>
<cc:requires rdf:resource="http://web.resource.org/cc/Notice"/>
<cc:requires rdf:resource="http://web.resource.org/cc/Attribution"/>
<cc:permits rdf:resource="http://web.resource.org/cc/DerivativeWorks"/>
<cc:requires rdf:resource="http://web.resource.org/cc/ShareAlike"/>
</cc:License>
<cc:Work rdf:about="">
<dc:format>image/svg+xml</dc:format>
<dc:type rdf:resource="http://purl.org/dc/dcmitype/StillImage"/>
</cc:Work>
</rdf:RDF>
</metadata>
<g transform="matrix(.021055 0 0 .020868 42.852 41.154)">
<rect x="-1559.3" y="-150.7" width="1339.6" height="478.36" color="black" fill="url(#l)" opacity=".40206"/>
<path d="m-219.62-150.68v478.33c142.87 0.90045 345.4-107.17 345.4-239.2 0-132.03-159.44-239.13-345.4-239.13z" color="black" fill="url(#d)" opacity=".40206"/>
<path d="m-1559.3-150.68v478.33c-142.87 0.90045-345.4-107.17-345.4-239.2 0-132.03 159.44-239.13 345.4-239.13z" color="black" fill="url(#c)" opacity=".40206"/>
</g>
<g>
<rect x="6.6036" y="3.6464" width="34.875" height="40.92" ry="1.149" color="#000000" display="block" fill="url(#h)" stroke="url(#i)" stroke-linecap="round" stroke-linejoin="round"/>
<rect x="7.6661" y="4.5839" width="32.776" height="38.946" rx=".14905" ry=".14905" color="#000000" display="block" fill="none" stroke="url(#g)" stroke-linecap="round" stroke-linejoin="round"/>
<g transform="translate(.64645 -.037989)">
<g transform="matrix(.2297 0 0 .2297 4.9671 4.245)" fill="#fff">
<path d="m23.428 113.07c0 1.973-1.6 3.572-3.573 3.572-1.974 0-3.573-1.6-3.573-3.572 0-1.974 1.6-3.573 3.573-3.573s3.573 1.6 3.573 3.573z"/>
<path d="m23.428 63.07c0 1.973-1.6 3.573-3.573 3.573-1.974 0-3.573-1.6-3.573-3.573 0-1.974 1.6-3.573 3.573-3.573s3.573 1.6 3.573 3.573z"/>
</g>
<path d="m9.995 29.952c0 0.4532-0.36752 0.8205-0.82073 0.8205-0.45343 0-0.82073-0.36752-0.82073-0.8205 0-0.45343 0.36752-0.82073 0.82073-0.82073 0.4532 0 0.82073 0.36752 0.82073 0.82073z" fill="url(#f)"/>
<path d="m9.995 18.467c0 0.4532-0.36752 0.82073-0.82073 0.82073-0.45343 0-0.82073-0.36752-0.82073-0.82073 0-0.45343 0.36752-0.82073 0.82073-0.82073 0.4532 0 0.82073 0.36752 0.82073 0.82073z" fill="url(#e)"/>
</g>
<path d="m11.506 5.4943v37.907" fill="none" stroke="#000" stroke-opacity=".017544" stroke-width=".98855"/>
<path d="m12.5 5.0205v38.018" fill="none" stroke="#fff" stroke-opacity=".20468"/>
</g>
<g>
<rect x="16" y="9" width="20" height="1" rx=".13779" ry=".065391" color="#000000" display="block" fill="#9b9b9b" fill-opacity=".54971"/>
<rect x="16" y="11" width="20" height="1" rx=".13779" ry=".065391" color="#000000" display="block" fill="#9b9b9b" fill-opacity=".54971"/>
<rect x="16" y="13" width="20" height="1" rx=".13779" ry=".065391" color="#000000" display="block" fill="#9b9b9b" fill-opacity=".54971"/>
<rect x="16" y="15" width="20" height="1" rx=".13779" ry=".065391" color="#000000" display="block" fill="#9b9b9b" fill-opacity=".54971"/>
<rect x="16" y="17" width="20" height="1" rx=".13779" ry=".065391" color="#000000" display="block" fill="#9b9b9b" fill-opacity=".54971"/>
<rect x="16" y="19" width="20" height="1" rx=".13779" ry=".065391" color="#000000" display="block" fill="#9b9b9b" fill-opacity=".54971"/>
<rect x="16" y="21" width="20" height="1" rx=".13779" ry=".065391" color="#000000" display="block" fill="#9b9b9b" fill-opacity=".54971"/>
<rect x="16" y="23" width="20" height="1" rx=".13779" ry=".065391" color="#000000" display="block" fill="#9b9b9b" fill-opacity=".54971"/>
<rect x="16" y="25" width="9" height="1" rx=".062004" ry=".065391" color="#000000" display="block" fill="#9b9b9b" fill-opacity=".54971"/>
<g fill="#9b9b9b" fill-opacity=".54971">
<rect x="16" y="29" width="20" height="1" rx=".13779" ry=".065391" color="#000000" display="block"/>
<rect x="16" y="31" width="20" height="1" rx=".13779" ry=".065391" color="#000000" display="block"/>
<rect x="16" y="33" width="20" height="1" rx=".13779" ry=".065391" color="#000000" display="block"/>
<rect x="16" y="35" width="20" height="1" rx=".13779" ry=".065391" color="#000000" display="block"/>
<rect x="16" y="37" width="14" height="1" rx=".09645" ry=".065391" color="#000000" display="block"/>
</g>
<g transform="translate(52.516 -.15497)">
<path transform="matrix(1.0601 0 0 1.0323 -28.121 24.836)" d="m21.213 19.083c0.001099 1.5135-4.4314 2.7406-9.8995 2.7406-5.4681 0-9.9006-1.2271-9.8995-2.7406-0.0010992-1.5135 4.4314-2.7406 9.8995-2.7406 5.4681 0 9.9006 1.2271 9.8995 2.7406z" color="#000000" display="block" fill="url(#b)" opacity=".50286"/>
<path d="m-16.098 25.863c-1.0608 0.017445-0.55672 2.0572-1.5938 2.2812-1.037 0.22406-1.4329-1.8283-2.4062-1.4062-0.97339 0.42207 0.27859 2.1149-0.59375 2.7188s-2.0122-1.1687-2.75-0.40625c-0.73778 0.76244 1.0436 1.8583 0.46875 2.75s-2.3289-0.26799-2.7188 0.71875 1.6898 1.2999 1.5 2.3438c-0.18985 1.0438-2.2362 0.62668-2.2188 1.6875 0.017444 1.0608 2.0572 0.55672 2.2812 1.5938s-1.8283 1.4329-1.4062 2.4062 2.1149-0.27859 2.7188 0.59375-1.1687 2.0122-0.40625 2.75c0.76244 0.73778 1.8583-1.0436 2.75-0.46875 0.89173 0.57485-0.26799 2.3289 0.71875 2.7188 0.98674 0.38984 1.2999-1.6898 2.3438-1.5s0.62668 2.2362 1.6875 2.2188c1.0608-0.017444 0.55672-2.0572 1.5938-2.2812 1.037-0.22406 1.4329 1.8283 2.4062 1.4062 0.97339-0.42207-0.27859-2.1149 0.59375-2.7188 0.87234-0.60386 2.0122 1.1687 2.75 0.40625 0.73778-0.76244-1.0436-1.8583-0.46875-2.75 0.57485-0.89173 2.3289 0.26799 2.7188-0.71875s-1.6898-1.2999-1.5-2.3438 2.2362-0.62668 2.2188-1.6875-2.0572-0.55672-2.2812-1.5938 1.8283-1.4329 1.4062-2.4062-2.1149 0.27859-2.7188-0.59375c-0.60386-0.87234 1.1687-2.0122 0.40625-2.75-0.76244-0.73777-1.8583 1.0436-2.75 0.46875-0.89173-0.57485 0.26799-2.3289-0.71875-2.7188s-1.2999 1.6898-2.3438 1.5c-1.0438-0.18984-0.62668-2.2362-1.6875-2.2188zm0.1875 5c3.036 0 5.5 2.464 5.5 5.5s-2.464 5.5-5.5 5.5-5.5-2.464-5.5-5.5 2.464-5.5 5.5-5.5z" color="#000000" display="block" fill="url(#k)" stroke="#888a85" stroke-miterlimit="10"/>
<path transform="translate(-26.822 25.452)" d="m17.324 10.863c6.32e-4 3.6128-2.9279 6.5419-6.5407 6.5419-3.6128 0-6.5414-2.9291-6.5407-6.5419-6.317e-4 -3.6128 2.9279-6.5419 6.5407-6.5419 3.6128 0 6.5414 2.9291 6.5407 6.5419z" color="#000000" display="block" fill="none" stroke="url(#j)" stroke-miterlimit="10"/>
</g>
</g>
</svg>